<svg id="directions-24px" xmlns="http://www.w3.org/2000/svg" width="18" height="18" viewBox="0 0 18 18">
  <path id="Path_2600" data-name="Path 2600" d="M0,0H18V18H0Z" fill="none"/>
  <path id="Path_2601" data-name="Path 2601" d="M16.721,8.937,10,2.216a.744.744,0,0,0-1.053,0L2.226,8.937a.744.744,0,0,0,0,1.053l6.721,6.721a.744.744,0,0,0,1.053,0L16.721,9.99a.744.744,0,0,0,0-1.053Zm-5.758,2.4V9.467H7.976v2.24H6.483V8.72a.749.749,0,0,1,.747-.747h3.734V6.107L13.577,8.72Z" transform="translate(-0.47 -0.467)" fill="#fff"/>
</svg>
