<svg id="Group_4175" data-name="Group 4175" xmlns="http://www.w3.org/2000/svg" width="120.884" height="120.884" viewBox="0 0 120.884 120.884">
  <path id="Path_3060" data-name="Path 3060" d="M0,0H120.884V120.884H0Z" fill="none"/>
  <path id="Path_3061" data-name="Path 3061" d="M92.663,13.074H12.074V83.589l46.8-46.812a5.037,5.037,0,0,1,7.122,0L92.663,63.492ZM2,8A5.037,5.037,0,0,1,7,3H97.74a5,5,0,0,1,5,5v80.66a5.037,5.037,0,0,1-5,5H7a5,5,0,0,1-5-5ZM32.221,43.295A10.074,10.074,0,1,1,42.295,33.221,10.074,10.074,0,0,1,32.221,43.295Z" transform="translate(8.074 12.11)" fill="#dcdcdc"/>
</svg>
