<svg id="qr-code" xmlns="http://www.w3.org/2000/svg" width="14.713" height="14.713" viewBox="0 0 14.713 14.713">
  <path id="Path_2509" data-name="Path 2509" d="M370.816,0H368.46a.46.46,0,0,0,0,.92h2.356a.4.4,0,0,1,.4.4V3.678a.46.46,0,0,0,.92,0V1.322A1.323,1.323,0,0,0,370.816,0Z" transform="translate(-357.425)" fill="#508ff4"/>
  <path id="Path_2510" data-name="Path 2510" d="M.46,4.138a.46.46,0,0,0,.46-.46V1.322a.4.4,0,0,1,.4-.4H3.678a.46.46,0,0,0,0-.92H1.322A1.323,1.323,0,0,0,0,1.322V3.678A.46.46,0,0,0,.46,4.138Z" fill="#508ff4"/>
  <path id="Path_2511" data-name="Path 2511" d="M3.678,371.218H1.322a.4.4,0,0,1-.4-.4V368.46a.46.46,0,0,0-.92,0v2.356a1.323,1.323,0,0,0,1.322,1.322H3.678a.46.46,0,0,0,0-.92Z" transform="translate(0 -357.425)" fill="#508ff4"/>
  <path id="Path_2512" data-name="Path 2512" d="M371.678,368a.46.46,0,0,0-.46.46v2.356a.4.4,0,0,1-.4.4H368.46a.46.46,0,0,0,0,.92h2.356a1.323,1.323,0,0,0,1.322-1.322V368.46A.46.46,0,0,0,371.678,368Z" transform="translate(-357.425 -357.425)" fill="#508ff4"/>
  <path id="Path_2513" data-name="Path 2513" d="M276.31,277.057a.748.748,0,0,0,.747-.747v-1.264a.748.748,0,0,0-.747-.747h-1.092v-1.552a.748.748,0,0,0-.747-.747h-1.724a.748.748,0,0,0-.747.747v1.724a.748.748,0,0,0,.747.747H274.3v1.092a.748.748,0,0,0,.747.747Zm-.316-.919h-.632a.144.144,0,0,1-.144-.144v-.632a.144.144,0,0,1,.144-.144h.632a.144.144,0,0,1,.144.144v.632A.144.144,0,0,1,275.994,276.138Z" transform="translate(-264.184 -264.184)" fill="#508ff4"/>
  <path id="Path_2514" data-name="Path 2514" d="M67.736,64H65.322A1.323,1.323,0,0,0,64,65.322v2.414a1.323,1.323,0,0,0,1.322,1.322h2.414a1.323,1.323,0,0,0,1.322-1.322V65.322A1.323,1.323,0,0,0,67.736,64Zm-.517,2.759a.46.46,0,0,1-.46.46H66.3a.46.46,0,0,1-.46-.46V66.3a.46.46,0,0,1,.46-.46h.46a.46.46,0,0,1,.46.46Z" transform="translate(-62.161 -62.161)" fill="#508ff4"/>
  <path id="Path_2515" data-name="Path 2515" d="M275.736,64h-2.414A1.323,1.323,0,0,0,272,65.322v2.414a1.323,1.323,0,0,0,1.322,1.322h2.414a1.323,1.323,0,0,0,1.322-1.322V65.322A1.323,1.323,0,0,0,275.736,64Zm-.517,2.759a.46.46,0,0,1-.46.46h-.46a.46.46,0,0,1-.46-.46V66.3a.46.46,0,0,1,.46-.46h.46a.46.46,0,0,1,.46.46Z" transform="translate(-264.184 -62.161)" fill="#508ff4"/>
  <path id="Path_2516" data-name="Path 2516" d="M67.736,272H65.322A1.323,1.323,0,0,0,64,273.322v2.414a1.323,1.323,0,0,0,1.322,1.322h2.414a1.323,1.323,0,0,0,1.322-1.322v-2.414A1.323,1.323,0,0,0,67.736,272Zm-.517,2.759a.46.46,0,0,1-.46.46H66.3a.46.46,0,0,1-.46-.46v-.46a.46.46,0,0,1,.46-.46h.46a.46.46,0,0,1,.46.46Z" transform="translate(-62.161 -264.184)" fill="#508ff4"/>
</svg>
